<svg version="1.1" id="tour" xmlns="http://www.w3.org/2000/svg" xmlns:xlink="http://www.w3.org/1999/xlink" x="0px" y="0px"
	 viewBox="0 0 1280 800" style="enable-background:new 0 0 1280 800;" xml:space="preserve">
<style type="text/css">
	.st0{fill:#FFFFFF;stroke:#2B6AC3;stroke-width:3;stroke-linejoin:round;stroke-miterlimit:10;}
	.st1{fill:none;stroke:#999999;stroke-linejoin:round;stroke-miterlimit:10;}
	circle {
    		fill-opacity: 0.5;
    		stroke-width: 4;
    		fill: #3080d0;
    		stroke: #3080d0;
    	}
</style>
<circle id="my-circle" cx="100" cy="100" r="50" />
<path class="st0" d="M198.1,582.6l5.9-11.2l-5.3-8.1l1.1-4.6l16.9-8.7l4.4,1.1l4.8-2.3l1.5-15l7.3-14.9l-0.6-5.8l-5.1-6.1l-9.4-5.8
	l1.9-2.3l0.3-6.5l-1.5-4l2.3-3.4l14.8-20.4l-5-6.6l0.6-4.1l29-25.8l14.4-7l6-7.1l10.1-6.5l1.9-7.8l-4.6-5l5.9-16.2V372l-2.9-6.6
	l3.6-10.2l10.4-5l19.6-6l12.3-8.8l4.9-7.4l-2.2-5.1l4-6.1l5.3-1.1l4.1-3.9V307l5.8-2.4l13.1-11.9l4.6-8.1l16.9-12.1l0.7-12.9l10-8.9
	l5-2.1l1.3-3.2l-7.2-6.9l-26,2.5l4.8-10.2l6.3-3.3l0.1-4.9h5.2l7-6.6l-3.9-11.8l4.6-0.9l3.2-2.2l5.1,2.8l14.5-1.3l6.9,2.6l5.8-0.1
	l-3.2,7.5l1.1,4.9l10.2,4.5l2.6,2.7l10.5-4l17.9-0.5l7.2-6.9l0.6-3.7l-3.1-2.8l0.8-2.4h3.1l6,2.4l4.5-3.8l-2.5-5.6l4.8-0.8l1.4-4.2
	l-4.6-2.9l15.5-10.7l17.7-4.1l-2.3,6.5l-3.3,3.5l8.5,3.8l18.2-3.4l8.8-10.4l5.2,1.4l11.3,0.5l2.4,7.7l24.8-0.4l9-2.5l4.1-6.3
	l5.6-1.7h3l3.1-5.1l15.4-1.1l6.2,2.1l3.6,6.2l9.5,3l16.4-1.5l2.8-6.2l5.2-3.3h6.8l6.2,7.9l3.3-3.1V161l1.2-0.9l2.8,2.9v-7l-5.1-2
	l-13.2,2.8l-4.8,4.1l-5.8-0.8L668,154l-0.9-7.1l1.1-4.4l7.1-4.4l5.5-12.6l13.3-2.4l2.6-1.6l-1.6-5.1l4.1-1.2l7.3,2.5l2.4,10.2l3-2.1
	l0.6-5.9l4.1-0.8l5.1,9.4h6.2l0.6,3.5l-3,6.7l3,6.8h7.9V138l6.9-0.4l10.4,7.5l-2.4,3.4l11.9,8.7l13.9-2.5l8-6l31,1.3l6.3,6.8
	l32,18.8l4.2,8.8l18,14.2l11.7-5.7l5.9,8.5l11.3,7.3V222l-7.6,12.4l-2.2,9l-9.8,14.5l-8.4,20.5l1.3,12.8l3.5,13.8l-1.5,6l-4,6.8
	l16.8,3l4.5-1l14.3-0.8l37.5,11.5l3.5,3.8l-2,16.5l7.5,7.2l22.2,6.8l10,8.2l11.8,2.5l15.2-7.2l2-11.8l4.8-4.2l9.2,0.5l1.2-8.8
	l11.5-12.2l6.5,4.2l4.2,6.2l8.5,6.3l-2.2,31.9l-5,7.2l3,10.8l-6.2,7l0.2,9.5l-4,7.2l4,8.8l9.9,1.2l3.9,5.8v17l-3.8,5.5l-10.5-2.2
	l-6.4-1.5l-9.4,1.5l-5-5.2l-10-4.2l1.3-6.5l-3.5-7.2l-25.5,8.5l-2.2,10.5l-7,9.5L987,478l3.8,5l-3.7,5l5.5,4.5l16.5,4.2l-0.8,10.8
	l-6.2,6l-0.5,10l12.8,13.5l-2,7.8l-10,6.8H992l-2-11.8L978.8,529l-2-12.4l-5.5-6.3l-14.8-0.3l-18,8.7l-11-3.3l-1.2,11.5l-7,5.7
	l-22.5,0.7l-8.2-4.8l-7-13.8l-7-5.8L873,477l-5.8,2.5l-2.5,6.2l-4.8-1l-4.5-3.8v-5l-13.8,1.5l-5.2,8.5l-1.4,9.8l3.6,4.2l1.5,6.8
	L843,524l-5.5,16.8l-3.2,12.5l-9.2,6l-2,8.2L807,580l-3.2,8l0.3,12l-9.5,3l-4,7l4.8,10l-8,7l2,3.5l4.8,8.5l8,1.8l2.8,7.8l-10.8,18
	l-11.8-2l-9.5,2l2-14.2L764.5,630l-19.2-7.2l7-12l5.5-11l-5.8-7.2h-23l-16.8-6.8L698,564l-18.5-11.4l-1.2-19.1l5-21.5l-2.5-17
	c0,0-10.2-2-11.2-1.5s-10.5,3-10.5,3l-8.8,10.5l3,3.2l-3.2,6.2l-8.8,4.5l-8.2,13.2l-17,6.2l-5.8,8.7l5.1,6.2l5.1,13.5v8l-5.2,10.8
	l-8.2,5.5l-5.6,1l-2.2,4.2l-1.5,17.5l-6,6.2l-16.5,4.5l-6,5.5l-3.2,7.5l0.3,4.2l-8.5-0.2l-10-1.8l-4.2-2.2l-6,1l-6.2-7l-4.8-3.2
	l-19.5-5.2l-7.5,7.8l-17.8,8.5l-9.5,5l-15.2-2l-13.8,7l-14,4.2l-13.2-2.5l-10-9.5l-5.2-11.8l-2.5-11.5l-14-14.5l-5.2-0.8l-5,2.5
	l-1.2-4.8l0.2-8.2l3.2-5.2l-4.5-5.5l-14.8-2.5l0.2-11.8l10.8-24l-8.8-12.8l-6.2-10.2l5.5-9.2V506l-15-5l-38.8,4.5l-4.4,6l-12.4,5.8
	l-4.6,4.6l-5.8-6.2l-12.2-1L251.5,536l4.3,10l4.5-1l2.3,6.8l-7.7,8l-19.2,16l-6.5,4.8l-7-3.5l-12,0.8l-7,1.5L198.1,582.6z"/>
<polyline class="st1" points="669.4,493.8 672.8,481.3 680.6,479.4 687.5,469.9 693.7,464.8 697.2,455.7 717,458.8 726,455.7 
	733.8,458.7 752.6,459.5 769.5,452.7 769.5,446 779.2,440.5 781.2,446 788.8,446.8 795.7,452.2 792,460.3 791.5,470.7 796.5,481.3 
	799.5,483.3 803,482.7 806.3,487.5 805.3,496.7 807.7,500.8 806,509.5 805.8,516.7 803.2,523.3 802.8,530.5 800.2,534.7 
	804.8,545.3 804.5,553 812,559.7 821.5,568.7 "/>
<polyline class="st1" points="358,506.5 377,506.5 380.5,515.7 380.5,523 388.3,528.3 409.7,568.7 429.7,553 440.3,537.6 
	440.7,533.3 447.1,526.9 453.6,523.7 455,518.3 463.5,516.2 463.5,522 466.3,523.3 471.8,521.2 479.9,514.9 491,513.9 498.8,516.2 
	510.8,510.6 506.7,506.5 514.4,502.8 518.1,502.2 522.8,496.8 541.8,502.7 565.8,485.5 574,485.5 590.2,474.7 589,468.5 
	597.8,464.2 617.7,466.7 625.2,471 629.5,471.3 631.5,474.3 653,467.7 663.5,458.5 667.3,442.3 673.2,435.2 676.7,437.8 
	675.2,450.2 673.8,454.3 679.3,465 687.5,469.9 "/>
</svg>
