<?xml version="1.0" encoding="utf-8"?>
<!-- Generator: Adobe Illustrator 20.1.0, SVG Export Plug-In . SVG Version: 6.00 Build 0)  -->
<svg version="1.1" xmlns="http://www.w3.org/2000/svg" xmlns:xlink="http://www.w3.org/1999/xlink" x="0px" y="0px"
	 viewBox="0 0 1280 800" style="enable-background:new 0 0 1280 800;" xml:space="preserve">
<style type="text/css">
	.st0{fill:none;}
	.st1{fill:#FFFFFF;}
	.st2{display:none;}
	.st3{display:inline;}
	.st4{fill:url(#Nouveau_motif);}
	.st5{fill:#FFFFFF;stroke:#2B6AC3;stroke-width:3;stroke-linejoin:round;stroke-miterlimit:10;}
	.st6{fill:none;stroke:#999999;stroke-linejoin:round;stroke-miterlimit:10;}
	.st7{display:inline;fill:#FFFFFF;}
	.st8{display:inline;fill:none;}
	.st9{fill:#2B6AC3;}
	.st10{font-family:'SuisseBPIntl-Bold';}
	.st11{font-size:34px;}
	.st12{fill:none;stroke:#2B6AC3;stroke-width:2.7929;stroke-miterlimit:10;}
	.st13{display:inline;fill:none;stroke:#2B6AC3;stroke-width:3;stroke-linejoin:round;stroke-miterlimit:10;}
	.st14{display:inline;fill:#FFFFFF;stroke:#2B6AC3;stroke-width:2.7929;stroke-miterlimit:10;}
	.st15{display:inline;fill:none;stroke:#2B6AC3;stroke-width:2.7929;stroke-miterlimit:10;}
</style>
<pattern  width="40" height="40" patternUnits="userSpaceOnUse" id="Nouveau_motif" viewBox="0 -40 40 40" style="overflow:visible;">
	<g>
		<rect y="-40" class="st0" width="40" height="40"/>
		<g>
			<circle cx="20" cy="-20" r="2.8"/>
			<path class="st1" d="M20-22.3c-1.3,0-2.3,1-2.3,2.3c0,1.3,1,2.3,2.3,2.3c1.3,0,2.3-1,2.3-2.3C22.3-21.3,21.3-22.3,20-22.3
				 M20-23.3c1.8,0,3.3,1.5,3.3,3.3c0,1.8-1.5,3.3-3.3,3.3s-3.3-1.5-3.3-3.3C16.7-21.8,18.2-23.3,20-23.3L20-23.3z"/>
		</g>
	</g>
</pattern>
<g id="pattern" class="st2">
	<g class="st3">
		<rect x="0.5" y="0.5" class="st4" width="1279" height="799"/>
		<path class="st1" d="M1279,1v798H1V1H1279 M1280,0H0v800h1280V0L1280,0z"/>
	</g>
</g>
<g id="tour">
	<path class="st5" d="M198.1,582.6l5.9-11.2l-5.3-8.1l1.1-4.6l16.9-8.7l4.4,1.1l4.8-2.3l1.5-15l7.3-14.9l-0.6-5.8l-5.1-6.1l-9.4-5.8
		l1.9-2.3l0.3-6.5l-1.5-4l2.3-3.4l14.8-20.4l-5-6.6l0.6-4.1l29-25.8l14.4-7l6-7.1l10.1-6.5l1.9-7.8l-4.6-5l5.9-16.2V372l-2.9-6.6
		l3.6-10.2l10.4-5l19.6-6l12.3-8.8l4.9-7.4l-2.2-5.1l4-6.1l5.3-1.1l4.1-3.9V307l5.8-2.4l13.1-11.9l4.6-8.1l16.9-12.1l0.7-12.9
		l10-8.9l5-2.1l1.3-3.2l-7.2-6.9l-26,2.5l4.8-10.2l6.3-3.3l0.1-4.9h5.2l7-6.6l-3.9-11.8l4.6-0.9l3.2-2.2l5.1,2.8l14.5-1.3l6.9,2.6
		l5.8-0.1l-3.2,7.5l1.1,4.9l10.2,4.5l2.6,2.7l10.5-4l17.9-0.5l7.2-6.9l0.6-3.7l-3.1-2.8l0.8-2.4h3.1l6,2.4l4.5-3.8l-2.5-5.6l4.8-0.8
		l1.4-4.2l-4.6-2.9l15.5-10.7l17.7-4.1l-2.3,6.5l-3.3,3.5l8.5,3.8l18.2-3.4l8.8-10.4l5.2,1.4l11.3,0.5l2.4,7.7l24.8-0.4l9-2.5
		l4.1-6.3l5.6-1.7h3l3.1-5.1l15.4-1.1l6.2,2.1l3.6,6.2l9.5,3l16.4-1.5l2.8-6.2l5.2-3.3h6.8l6.2,7.9l3.3-3.1V161l1.2-0.9l2.8,2.9v-7
		l-5.1-2l-13.2,2.8l-4.8,4.1l-5.8-0.8L668,154l-0.9-7.1l1.1-4.4l7.1-4.4l5.5-12.6l13.3-2.4l2.6-1.6l-1.6-5.1l4.1-1.2l7.3,2.5
		l2.4,10.2l3-2.1l0.6-5.9l4.1-0.8l5.1,9.4h6.2l0.6,3.5l-3,6.7l3,6.8h7.9V138l6.9-0.4l10.4,7.5l-2.4,3.4l11.9,8.7l13.9-2.5l8-6
		l31,1.3l6.3,6.8l32,18.8l4.2,8.8l18,14.2l11.7-5.7l5.9,8.5l11.3,7.3V222l-7.6,12.4l-2.2,9l-9.8,14.5l-8.4,20.5l1.3,12.8l3.5,13.8
		l-1.5,6l-4,6.8l16.8,3l4.5-1l14.3-0.8l37.5,11.5l3.5,3.8l-2,16.5l7.5,7.2l22.2,6.8l10,8.2l11.8,2.5l15.2-7.2l2-11.8l4.8-4.2
		l9.2,0.5l1.2-8.8l11.5-12.2l6.5,4.2l4.2,6.2l8.5,6.3l-2.2,31.9l-5,7.2l3,10.8l-6.2,7l0.2,9.5l-4,7.2l4,8.8l9.9,1.2l3.9,5.8v17
		l-3.8,5.5l-10.5-2.2l-6.4-1.5l-9.4,1.5l-5-5.2l-10-4.2l1.3-6.5l-3.5-7.2l-25.5,8.5l-2.2,10.5l-7,9.5L987,478l3.8,5l-3.7,5l5.5,4.5
		l16.5,4.2l-0.8,10.8l-6.2,6l-0.5,10l12.8,13.5l-2,7.8l-10,6.8H992l-2-11.8L978.8,529l-2-12.4l-5.5-6.3l-14.8-0.3l-18,8.7l-11-3.3
		l-1.2,11.5l-7,5.7l-22.5,0.7l-8.2-4.8l-7-13.8l-7-5.8L873,477l-5.8,2.5l-2.5,6.2l-4.8-1l-4.5-3.8v-5l-13.8,1.5l-5.2,8.5l-1.4,9.8
		l3.6,4.2l1.5,6.8L843,524l-5.5,16.8l-3.2,12.5l-9.2,6l-2,8.2L807,580l-3.2,8l0.3,12l-9.5,3l-4,7l4.8,10l-8,7l2,3.5l4.8,8.5l8,1.8
		l2.8,7.8l-10.8,18l-11.8-2l-9.5,2l2-14.2L764.5,630l-19.2-7.2l7-12l5.5-11l-5.8-7.2h-23l-16.8-6.8L698,564l-18.5-11.4l-1.2-19.1
		l5-21.5l-2.5-17c0,0-10.2-2-11.2-1.5s-10.5,3-10.5,3l-8.8,10.5l3,3.2l-3.2,6.2l-8.8,4.5l-8.2,13.2l-17,6.2l-5.8,8.7l5.1,6.2
		l5.1,13.5v8l-5.2,10.8l-8.2,5.5l-5.6,1l-2.2,4.2l-1.5,17.5l-6,6.2l-16.5,4.5l-6,5.5l-3.2,7.5l0.3,4.2l-8.5-0.2l-10-1.8l-4.2-2.2
		l-6,1l-6.2-7l-4.8-3.2l-19.5-5.2l-7.5,7.8l-17.8,8.5l-9.5,5l-15.2-2l-13.8,7l-14,4.2l-13.2-2.5l-10-9.5l-5.2-11.8l-2.5-11.5
		l-14-14.5l-5.2-0.8l-5,2.5l-1.2-4.8l0.2-8.2l3.2-5.2l-4.5-5.5l-14.8-2.5l0.2-11.8l10.8-24l-8.8-12.8l-6.2-10.2l5.5-9.2V506l-15-5
		l-38.8,4.5l-4.4,6l-12.4,5.8l-4.6,4.6l-5.8-6.2l-12.2-1L251.5,536l4.3,10l4.5-1l2.3,6.8l-7.7,8l-19.2,16l-6.5,4.8l-7-3.5l-12,0.8
		l-7,1.5L198.1,582.6z"/>
	<g id="cantons">
		<polyline class="st6" points="294.8,381.6 311.1,379.6 330,370.8 349,356.7 351,365 357,383 408,343.7 411.8,329.7 420.5,325.3 
			420.5,317 411,307.7 379.7,315.7 383.3,304.3 373.4,292.8 384,298.6 396.7,289.5 402,289.5 412,281.3 417.7,272 426,274 
			433.7,272 437,258.3 455.3,261.2 474,253.5 494,253.5 507.5,253.5 507.5,245 501.7,238 482.3,234 468.7,220.5 		"/>
		<polyline class="st6" points="669.4,493.8 672.8,481.3 680.6,479.4 687.5,469.9 693.7,464.8 697.2,455.7 717,458.8 726,455.7 
			733.8,458.7 752.6,459.5 769.5,452.7 769.5,446 779.2,440.5 781.2,446 788.8,446.8 795.7,452.2 792,460.3 791.5,470.7 
			796.5,481.3 799.5,483.3 803,482.7 806.3,487.5 805.3,496.7 807.7,500.8 806,509.5 805.8,516.7 803.2,523.3 802.8,530.5 
			800.2,534.7 804.8,545.3 804.5,553 812,559.7 821.5,568.7 		"/>
		<polyline class="st6" points="890,320.7 881.8,348.7 872.4,368.1 861.4,365.1 835.5,362.5 832,358.8 826,364.8 821.5,370 
			816,371.5 806.5,376.8 802.5,373.3 794.7,373.5 792.2,382.3 787.5,388.8 770.5,394.1 768.2,390.5 763,390.5 757.2,394.1 
			752.5,396.8 752.5,404 749.5,409 749.5,413.5 742,413.5 735.5,416.8 730.8,422.2 722.5,425.5 722.5,433 720.2,440.5 725,448.8 
			726,455.7 		"/>
		<polyline class="st6" points="358,506.5 377,506.5 380.5,515.7 380.5,523 388.3,528.3 409.7,568.7 429.7,553 440.3,537.6 
			440.7,533.3 447.1,526.9 453.6,523.7 455,518.3 463.5,516.2 463.5,522 466.3,523.3 471.8,521.2 479.9,514.9 491,513.9 
			498.8,516.2 510.8,510.6 506.7,506.5 514.4,502.8 518.1,502.2 522.8,496.8 541.8,502.7 565.8,485.5 574,485.5 590.2,474.7 
			589,468.5 597.8,464.2 617.7,466.7 625.2,471 629.5,471.3 631.5,474.3 653,467.7 663.5,458.5 667.3,442.3 673.2,435.2 
			676.7,437.8 675.2,450.2 673.8,454.3 679.3,465 687.5,469.9 		"/>
		<polyline class="st6" points="672.9,177.5 666.4,188.5 660.6,199.5 662.2,211 669.4,224 668.7,228.3 663.5,233.5 670.3,238.8 
			671.3,247.6 674.7,248.5 679,248.5 673,257.8 666.5,260.7 671.7,273.5 674.5,277.7 685,279.8 700.2,277.2 708.2,283.8 
			712.7,289.2 720.5,293.8 724.5,292.3 723.2,288.2 730.7,280.7 742.3,277.5 744,270.5 748,267.3 757.5,268.5 771.5,261.2 
			771.5,256 777.7,249.7 775.3,238.5 764.8,226.5 762.8,224 766.2,216.3 762.5,212.7 762.5,209 759.2,205.7 761.5,195.3 
			761.3,189.3 752,185.8 751.7,180.5 733.8,170.3 734,165.8 737.2,164.8 742.8,169.3 748,161.3 744.5,152 746,141 		"/>
		<polyline class="st6" points="770.2,232.4 780.7,217.3 784,215.9 789.5,215.3 789.5,209 782.3,204.5 783.3,200.6 787.2,199.5 
			792,199.5 795.7,198.8 803,201.5 810.8,198.8 828.5,202.8 839.2,201.3 841,195.5 839.2,192.5 834,192.5 837.8,189.5 841,189.5 
			844.8,187.3 848.5,189.8 849.7,195.8 855.2,201.7 868.7,190.7 		"/>
		<polyline class="st6" points="742.1,277.4 754.2,278.5 768.8,276.6 776.3,278.5 775.5,284 781.8,291.2 777.7,306.8 776.8,317.3 
			773.2,322.7 764,329 764.8,332.8 772.5,340.7 772.5,345 777.5,348.8 777.5,358 757.2,369.2 755,365 751.8,362.2 751.5,357.7 
			749.7,356.7 743.3,357.3 738.8,354.7 730,360.8 725.5,354.3 716.8,352.7 711.5,351.7 708.2,342.7 686,344.2 680.8,339.2 678,337 
			674.7,339 666.5,340 664,337.5 658,340.7 647.5,340.8 637.8,342.8 636.2,347.3 623.5,351 623.5,357 616.3,366.5 610.3,366.3 
			605,382.2 603.2,386.8 606.3,393.2 603.2,399.3 591,403 585,396.2 571,384.3 567.7,373.5 570.8,370.2 570.7,362 574.7,359.3 
			577.3,359.7 585.8,339.9 574.8,337.2 573.2,331 569.2,325.8 570.5,307 572.8,304.2 570,290.8 563.5,276.7 559.8,265.3 565,256 
			576.3,245.7 587.7,248.7 592.7,248 598.7,235.7 597.8,228.7 592.8,226 589.2,214.5 584.5,212.3 582,206 575,204 568.2,193.2 
			562.7,187.5 559.8,191.5 557.5,194.7 553.3,197.5 551.5,196 551.5,192 542.7,187.5 		"/>
		<path class="st6" d="M447.3,526.8l-1.3-3.5l1.5-3.2v-2l-6.7-5.3l2.2-5.9l-1.4-8.8l4.7-2.8l1.2-3.3V484l3.2-4.3l1.1-9.4l-2.8-4.8
			l-6.9,4.8l-9.8,2.4l-8.2,9.3l-9.8,2.2l-6.3,5.5l-1.8,4.4l-4.6,2l-1.9-5.3l-1.9-7.3l-12.4-8.8l-4-0.2l-4.8,4.1l-5.2,0.5l-4.1-7.8
			l2.3-3l5.9,0.1l1.2,1.2l7.3-6.8l-3.4-2.2l-5.6-3.9l-10.8,1.7l1.3-7.2l-0.8-11.7l8-4l4.4-0.3l1.2-3.5l8.5-12.8c0,0,4.4-5.2,4.4-5.7
			s0.2-2.2,0.2-2.2l-4-1.7l0.4-2.5l3.7-1.7l5-6.5l-0.2-4.9l2.7-3.8l3.5-3l-0.2-2.7l-2.7-2.5l0.9-6.3l-2.2-1.6l-2.1,2.2l-11.2-14.9"
			/>
		<polyline class="st6" points="449.1,465.2 456.5,458.5 462,458.5 464.2,456.6 464.8,447.3 463.7,441 467,439.1 472,439.9 
			475.5,437.8 475.5,432 476.1,426.9 469.4,423.3 462.6,418.5 461.2,410.2 463.3,393.6 464.2,386.2 462.6,381.1 465.5,380.3 
			468.4,382.3 472.3,378.6 470.8,371 451.8,369.2 442.5,367.5 444.3,357.1 442.1,350.1 448.1,346.4 445.7,339.8 438.7,342.2 
			428.2,345.8 415.5,346.8 408,343.7 		"/>
		<polyline class="st6" points="487,234.9 491.1,230.4 499.1,232.6 504,230.4 506.4,226.5 514.2,225.7 513.4,222.1 519.2,219.5 
			523.4,211.2 519.4,206.4 527.3,205.5 531.7,204.2 538.8,210.4 535.6,215.1 533.6,224.1 524.7,228.3 526.8,238.5 537,238.5 
			549.7,245.5 554,245.5 558.8,237.7 569.7,233 571.8,227.6 579.1,227.8 585.1,222.9 583,217.7 584.5,212.3 		"/>
		<path class="st6" d="M563.3,276.5l13-3.2l7.5-1.3l2-8.5h7.2l4.5,9.3l12.8-4.9l6.7,3.7l7.3,1l2.1,5l4.9-1.1L640,262l7,0.8l9.9,23.4
			l4.5,10.9l9.4,3.6l7.8,7.3l7.1-1.1c0,0,3.2,6.6,3.9,6.6s10.3,0,10.3,0l3.5,1.8l14.1-4.5l9.4-14.6l-2.5-3.8"/>
		<polyline class="st6" points="671.7,273.5 668.9,282.2 670.8,300.7 		"/>
		<polyline class="st6" points="781.9,291.1 785.8,288.7 793.1,295.2 800.8,300.2 819.5,303.6 819.5,319 810.6,326.3 816,329.3 
			824.3,326.8 830.5,334.5 831.3,343.6 830.1,350.7 832,358.8 		"/>
		<polyline class="st6" points="603.2,399.6 614.3,403.1 623.8,408.5 634.8,404.4 648.2,408.7 660.6,400.5 669,400.5 673,404.2 
			676.5,403 680.2,404.4 678.5,410.8 682.3,423 680.4,426.5 673,426.5 673.2,435.2 		"/>
		<polyline class="st6" points="636,347.5 645,347.5 653,349.5 650.5,357.2 657.5,363.2 657.5,378 657.5,393 666.4,400.5 		"/>
		<polyline class="st6" points="702.1,343.1 699.4,355.5 683.9,365.9 686,379.6 690.2,381.7 687.5,394.8 687.5,403 680.2,404.4 		
			"/>
		<polyline class="st6" points="762.5,391 762.5,381 768.8,376 774.8,374 777.7,367.4 772.4,360.8 		"/>
		<polyline class="st6" points="678.6,308.1 671.6,312.9 669.4,319.1 668.9,323.8 673.8,325.5 680,325.5 691.1,334.9 683.9,341.8 		
			"/>
		<polyline class="st6" points="501.6,253.8 503,262.2 493.6,266.8 482.7,273.5 470,282.4 476.1,292 480,296.7 493,288.6 
			495.7,296.5 489,296.5 486.5,308.5 474,308.5 479,315.3 486.5,314 488.9,320.7 493.5,317.3 493.5,308 511,295.2 515,296.7 
			527.3,297.3 533.3,290.7 525,276.3 518.7,275.2 515.3,262.5 527,262.5 536.1,259 544.3,268.3 559.8,265.3 		"/>
		<polyline class="st6" points="657.5,367.5 664.5,375.9 666.4,388.2 671.7,397.5 676.8,400 673,404.2 		"/>
		<polyline class="st6" points="686,379.6 676.8,381.2 671.7,377 668.9,379.1 664.5,375.9 		"/>
		<polygon class="st6" points="847.2,266.6 855.5,270.1 868.7,264 874.8,252.3 876.5,237.2 876.5,226 884.8,223.5 893.8,219.8 
			898,209.9 884,204.2 866.2,214 862,221.2 840.8,225.5 830.8,224.5 819.4,237.2 821.2,243 824.8,242.5 823,255.8 821.8,260.2 
			832,262 838,263.2 		"/>
		<polyline class="st6" points="876.6,237.1 868.7,237.1 849,227.7 848.1,237.2 843.5,243.8 843.5,256 847.2,266.6 		"/>
	</g>
</g>
<g id="texte" class="st2">
	<rect x="36.5" y="39.4" class="st7" width="418.5" height="42.1"/>
	<rect x="36.5" y="91" class="st7" width="418.5" height="42.5"/>
	<rect x="40.6" y="46.6" class="st8" width="411.1" height="126.7"/>
	<text transform="matrix(1 0 0 1 40.6268 69.1871)" class="st3"><tspan x="0" y="0" class="st9 st10 st11">Repartition géographique </tspan><tspan x="0" y="50" class="st9 st10 st11">des portugais en Suisse</tspan></text>
</g>
<g id="lightbox" class="st2">
	<g class="st3">
		<rect x="576.6" y="139.6" class="st1" width="643.9" height="602.1"/>
		<path class="st9" d="M1219.1,141v599.3H578V141H1219.1 M1221.9,138.2h-2.8H578h-2.8v2.8v599.3v2.8h2.8h641.1h2.8v-2.8V141V138.2
			L1221.9,138.2z"/>
	</g>
	<g class="st3">
		<line class="st12" x1="575.9" y1="204.2" x2="1219.1" y2="204.2"/>
	</g>
	<line class="st13" x1="640.8" y1="139.3" x2="640.8" y2="204.2"/>
	<line class="st14" x1="596.5" y1="182.9" x2="618.7" y2="160.7"/>
	<line class="st14" x1="596.5" y1="160.7" x2="618.7" y2="182.9"/>
	<text transform="matrix(1 0 0 1 603.2164 252.1719)" class="st3 st10 st11">Genève</text>
	<line class="st15" x1="603.2" y1="262" x2="725.7" y2="262"/>
</g>
</svg>
